<svg xmlns="http://www.w3.org/2000/svg" viewBox="0 0 256 256" role="img" aria-labelledby="title desc">
  <title id="title">Logo MMPI TNI AU</title>
  <desc id="desc">Perisai teal dengan sayap biru dan simbol asesmen psikologi.</desc>
  <defs>
    <linearGradient id="shield" x1="62" x2="194" y1="31" y2="222" gradientUnits="userSpaceOnUse">
      <stop stop-color="#14b8a6"/>
      <stop offset="1" stop-color="#0f766e"/>
    </linearGradient>
    <linearGradient id="wing" x1="20" x2="236" y1="78" y2="156" gradientUnits="userSpaceOnUse">
      <stop stop-color="#0f172a"/>
      <stop offset="0.45" stop-color="#1d4ed8"/>
      <stop offset="1" stop-color="#0f172a"/>
    </linearGradient>
    <filter id="shadow" x="-20%" y="-20%" width="140%" height="145%" color-interpolation-filters="sRGB">
      <feDropShadow dx="0" dy="10" stdDeviation="9" flood-color="#0f172a" flood-opacity="0.22"/>
    </filter>
  </defs>
  <rect width="256" height="256" rx="56" fill="#f8fafc"/>
  <path d="M128 24c35 23 67 28 91 27v73c0 54-33 92-91 110-58-18-91-56-91-110V51c24 1 56-4 91-27Z" fill="url(#shield)" filter="url(#shadow)"/>
  <path d="M128 54c24 15 46 19 63 19v47c0 35-21 60-63 75-42-15-63-40-63-75V73c17 0 39-4 63-19Z" fill="#ecfeff" opacity="0.94"/>
  <path d="M118 118c-23-15-48-24-82-25 21 21 44 34 73 41-22 2-42 1-64-5 22 18 45 28 77 28h12c32 0 55-10 77-28-22 6-42 7-64 5 29-7 52-20 73-41-34 1-59 10-82 25l-10-13-10 13Z" fill="url(#wing)"/>
  <circle cx="128" cy="115" r="29" fill="#0f766e"/>
  <path d="M128 95c10 0 18 8 18 18 0 14-14 16-14 26h-8c0-14 13-16 13-26a9 9 0 1 0-17 4l-8-2c1-12 8-20 16-20Zm-5 52h10v10h-10v-10Z" fill="#ecfeff"/>
  <path d="M92 179h72" stroke="#0f766e" stroke-width="10" stroke-linecap="round"/>
  <path d="M109 198h38" stroke="#0f766e" stroke-width="8" stroke-linecap="round" opacity="0.85"/>
</svg>
